<svg xmlns="http://www.w3.org/2000/svg" xmlns:xlink="http://www.w3.org/1999/xlink" version="1.1" x="0px" y="0px" viewBox="0 0 75 93.75" enable-background="new 0 0 75 75" xml:space="preserve"><path d="M46.246,38.572c7.312-0.692,4.094,3.58,12.021,0c7.926-3.58,13.17-1.108,13.17-1.108s-9.205-8.098-16.688-6.053  c-7.48,2.047-5.18,5.755-5.18,5.755s-3.965-0.996-7.545,1.15c-0.869,0.521-1.56,1.317-2.073,2.08  c0.76-6.159,0.254-13.326,0.254-13.326c10.312-3.36-6.746-15.899-6.746-15.899s-0.964,7.805-0.771,12.912  c0.193,5.106,6.504,3.192,6.504,3.192c0.512,2.835-0.229,8.588-0.812,12.285c-0.533-2.458-1.669-5.729-4.03-6.871  c0,0,0.768-5.499-5.115-3.836c-5.882,1.663-6.62,3.706-8.66,6.124c-1.459,1.729-4.98,7.431-4.98,7.431s11.424-11.167,17.647-8.61  c2.302,0.683,3.837,2.984,3.793,10.273c-0.032,5.3-0.415,8.053-0.704,9.384H32.18l3.396-2.005L3.562,49.859l22.692,2.89  l-9.395,2.024l22.836,1.012l-4.12,3.469l15.682-1.445l12.431,1.445l-11.852-3.469l-7.986,0.898l5.238-3.229h-10.33  C38.598,49.961,38.732,39.284,46.246,38.572z M52.896,38.057c1.149-0.479,4.24-1.929,8.479-2.506  c4.24-0.578,5.492,0.337,5.492,0.337s-4.336-0.819-10.263,2.312C53.516,39.834,51.748,38.534,52.896,38.057z M25.146,31.696  l1.928-1.349c6.07-2.795,6.552,0.714,6.552,0.714C32.131,28.958,25.146,31.696,25.146,31.696z M36.805,16.28  c0,0,2.53,5.179,2.747,6.334c0,0,0.433-1.229,0-4.119c0,0,1.107,4.264,0.626,6.938C40.178,25.433,38.348,24.566,36.805,16.28z"/><text x="0" y="90" fill="#000000" font-size="5px" font-weight="bold" font-family="'Helvetica Neue', Helvetica, Arial-Unicode, Arial, Sans-serif">Created by Stephen Borengasser</text><text x="0" y="95" fill="#000000" font-size="5px" font-weight="bold" font-family="'Helvetica Neue', Helvetica, Arial-Unicode, Arial, Sans-serif">from the Noun Project</text></svg>